<?xml version="1.0" standalone="no"?>
<!DOCTYPE svg PUBLIC "-//W3C//DTD SVG 20010904//EN"
 "http://www.w3.org/TR/2001/REC-SVG-20010904/DTD/svg10.dtd">
<svg version="1.0" xmlns="http://www.w3.org/2000/svg"
 width="700.000000pt" height="700.000000pt" viewBox="0 0 700.000000 700.000000"
 preserveAspectRatio="xMidYMid meet">
<metadata>
Created by potrace 1.11, written by Peter Selinger 2001-2013
</metadata>
<g transform="translate(0.000000,700.000000) scale(0.100000,-0.100000)"
fill="#000000" stroke="none">
<path d="M610 6436 c-10 -27 -4 -56 14 -69 16 -10 73 -25 131 -32 28 -3 59 -8
70 -10 11 -3 38 -7 60 -10 22 -3 47 -7 55 -10 8 -2 33 -6 55 -9 144 -21 209
-45 229 -85 36 -68 51 -209 61 -546 25 -853 25 -3570 0 -4320 -12 -368 -25
-485 -61 -557 -27 -52 -136 -83 -404 -113 -158 -18 -224 -44 -216 -85 9 -47
16 -51 82 -45 96 7 261 15 444 20 187 6 1217 6 1355 1 645 -25 1181 -26 1258
-1 7 2 35 6 62 9 112 13 302 52 420 87 39 11 75 21 80 23 214 56 552 217 785
375 332 226 662 558 861 866 99 154 196 335 240 448 11 29 24 61 29 72 18 40
81 239 96 307 2 10 6 28 9 41 9 33 35 177 41 217 3 19 7 49 9 65 20 136 26
485 12 660 -61 768 -340 1407 -828 1894 -296 297 -729 541 -1194 676 -452 130
-883 170 -1525 142 -96 -4 -251 -11 -345 -15 -353 -15 -1418 -7 -1670 13 -225
18 -204 18 -215 -9z m2730 -189 c19 -3 60 -8 90 -11 579 -64 1081 -290 1447
-653 125 -123 186 -194 265 -308 186 -268 314 -574 394 -945 21 -98 39 -205
50 -300 3 -30 7 -65 9 -78 25 -159 26 -825 1 -972 -4 -23 -7 -43 -22 -160 -17
-131 -61 -326 -114 -510 -65 -220 -221 -540 -346 -710 -19 -25 -37 -50 -41
-55 -35 -47 -110 -133 -173 -199 -248 -259 -540 -432 -899 -530 -88 -24 -116
-30 -241 -50 -176 -29 -847 -29 -1090 0 -220 26 -415 115 -474 217 -25 42 -69
180 -79 247 -3 19 -8 46 -11 60 -6 22 -18 102 -31 200 -2 19 -7 60 -10 90 -3
30 -7 71 -10 90 -2 19 -7 80 -11 135 -4 55 -8 116 -9 135 -3 35 -14 230 -20
370 -24 514 -24 2448 0 3105 17 464 21 526 40 617 17 84 36 113 90 137 47 21
152 46 230 56 28 4 60 8 72 10 13 2 67 7 120 10 54 4 99 8 101 10 5 5 636 -2
672 -8z"/>
</g>
</svg>
