<?xml version="1.0" encoding="iso-8859-1"?>
<!DOCTYPE svg PUBLIC "-//W3C//DTD SVG 1.1//EN" "http://www.w3.org/Graphics/SVG/1.1/DTD/svg11.dtd">
<svg version="1.1" id="Layer_1" xmlns="http://www.w3.org/2000/svg" xmlns:xlink="http://www.w3.org/1999/xlink" x="0px" y="0px"
	 width="20px" height="25px" viewBox="0 0 88.28 102.054" style="enable-background:new 0 0 88.28 102.054;">
<path id="path3239" style="fill:#3771C8;" d="M44.159,0C29.258,0,14.366,3.791,1.268,10.896
	c-1.846,11.458-1.674,23.249,0.508,34.647c1.776,9.277,4.879,18.33,9.661,26.476c5.577,9.501,13.366,17.64,22.408,23.934
	c3.276,2.281,6.743,4.315,10.314,6.102c3.57-1.786,7.001-3.82,10.277-6.102c9.042-6.294,16.831-14.433,22.408-23.934
	c4.782-8.146,7.885-17.198,9.661-26.476c2.182-11.398,2.354-23.189,0.508-34.647C73.915,3.791,59.061,0,44.159,0z M44.159,21.573
	c6.623,0,11.984,5.361,11.984,11.985c0,3.761-1.721,7.135-4.431,9.333l4.431,19.395H44.159H32.138l4.431-19.395
	c-2.71-2.198-4.431-5.572-4.431-9.333C32.138,26.935,37.535,21.573,44.159,21.573z"/>
</svg>